<mxfile host="app.diagrams.net" modified="2023-06-30T11:36:37.940Z" agent="Mozilla/5.0 (Windows NT 10.0; Win64; x64) AppleWebKit/537.36 (KHTML, like Gecko) Chrome/114.0.0.0 Safari/537.36" etag="SJ2h1EkGhBFgFkKTMm0N" version="21.5.2" type="device">
  <diagram name="Page-1" id="4ml5jSpULQjlNNlSD3eU">
    <mxGraphModel dx="1105" dy="746" grid="1" gridSize="10" guides="1" tooltips="1" connect="1" arrows="1" fold="1" page="1" pageScale="1" pageWidth="1200" pageHeight="1600" math="0" shadow="0">
      <root>
        <mxCell id="0" />
        <mxCell id="1" parent="0" />
        <mxCell id="7qkod4AInbRbRMI81gZa-2" style="edgeStyle=orthogonalEdgeStyle;rounded=0;orthogonalLoop=1;jettySize=auto;html=1;entryX=0.5;entryY=0;entryDx=0;entryDy=0;strokeWidth=2;" edge="1" parent="1" source="7qkod4AInbRbRMI81gZa-3" target="7qkod4AInbRbRMI81gZa-38">
          <mxGeometry relative="1" as="geometry" />
        </mxCell>
        <mxCell id="7qkod4AInbRbRMI81gZa-3" value="&lt;b style=&quot;font-size: 21px;&quot;&gt;Input&amp;nbsp;&lt;/b&gt;&lt;br&gt;&lt;font style=&quot;font-size: 16px;&quot;&gt;MxNx3&lt;/font&gt;" style="rounded=1;whiteSpace=wrap;html=1;rotation=-90;strokeWidth=2;" vertex="1" parent="1">
          <mxGeometry x="-40" y="310" width="200" height="60" as="geometry" />
        </mxCell>
        <mxCell id="7qkod4AInbRbRMI81gZa-31" style="edgeStyle=orthogonalEdgeStyle;rounded=0;orthogonalLoop=1;jettySize=auto;html=1;strokeWidth=2;" edge="1" parent="1" source="7qkod4AInbRbRMI81gZa-32" target="7qkod4AInbRbRMI81gZa-34">
          <mxGeometry relative="1" as="geometry" />
        </mxCell>
        <mxCell id="7qkod4AInbRbRMI81gZa-32" value="&lt;span style=&quot;font-size: 21px;&quot;&gt;&lt;b&gt;Flatten&lt;/b&gt;&lt;/span&gt;" style="rounded=1;whiteSpace=wrap;html=1;rotation=-90;strokeWidth=2;" vertex="1" parent="1">
          <mxGeometry x="320" y="310" width="200" height="60" as="geometry" />
        </mxCell>
        <mxCell id="7qkod4AInbRbRMI81gZa-34" value="&lt;span style=&quot;font-size: 21px;&quot;&gt;&lt;b&gt;Dense (512)&lt;/b&gt;&lt;/span&gt;" style="rounded=1;whiteSpace=wrap;html=1;rotation=-90;strokeWidth=2;" vertex="1" parent="1">
          <mxGeometry x="420" y="310" width="200" height="60" as="geometry" />
        </mxCell>
        <mxCell id="7qkod4AInbRbRMI81gZa-35" value="&lt;span style=&quot;font-size: 21px;&quot;&gt;&lt;b&gt;Dense (128)&lt;/b&gt;&lt;/span&gt;" style="rounded=1;whiteSpace=wrap;html=1;rotation=-90;strokeWidth=2;" vertex="1" parent="1">
          <mxGeometry x="480" y="310" width="200" height="60" as="geometry" />
        </mxCell>
        <mxCell id="7qkod4AInbRbRMI81gZa-36" value="&lt;span style=&quot;font-size: 21px;&quot;&gt;&lt;b&gt;Dense (3)&lt;/b&gt;&lt;/span&gt;" style="rounded=1;whiteSpace=wrap;html=1;rotation=-90;strokeWidth=2;" vertex="1" parent="1">
          <mxGeometry x="540" y="310" width="200" height="60" as="geometry" />
        </mxCell>
        <mxCell id="7qkod4AInbRbRMI81gZa-37" style="edgeStyle=orthogonalEdgeStyle;rounded=0;orthogonalLoop=1;jettySize=auto;html=1;entryX=0.5;entryY=0;entryDx=0;entryDy=0;strokeWidth=2;" edge="1" parent="1" source="7qkod4AInbRbRMI81gZa-38" target="7qkod4AInbRbRMI81gZa-40">
          <mxGeometry relative="1" as="geometry" />
        </mxCell>
        <mxCell id="7qkod4AInbRbRMI81gZa-38" value="&lt;b style=&quot;font-size: 21px;&quot;&gt;Resize&lt;br&gt;&lt;/b&gt;&lt;font style=&quot;font-size: 16px;&quot;&gt;224x224x3&lt;/font&gt;" style="rounded=1;whiteSpace=wrap;html=1;rotation=-90;strokeWidth=2;" vertex="1" parent="1">
          <mxGeometry x="40" y="310" width="200" height="60" as="geometry" />
        </mxCell>
        <mxCell id="7qkod4AInbRbRMI81gZa-52" style="edgeStyle=orthogonalEdgeStyle;rounded=0;orthogonalLoop=1;jettySize=auto;html=1;entryX=0.5;entryY=0;entryDx=0;entryDy=0;" edge="1" parent="1" source="7qkod4AInbRbRMI81gZa-40" target="7qkod4AInbRbRMI81gZa-48">
          <mxGeometry relative="1" as="geometry" />
        </mxCell>
        <mxCell id="7qkod4AInbRbRMI81gZa-40" value="&lt;span style=&quot;font-size: 21px;&quot;&gt;&lt;b&gt;Normalization&lt;/b&gt;&lt;/span&gt;" style="rounded=1;whiteSpace=wrap;html=1;rotation=-90;strokeWidth=2;" vertex="1" parent="1">
          <mxGeometry x="122.5" y="310" width="200" height="60" as="geometry" />
        </mxCell>
        <mxCell id="7qkod4AInbRbRMI81gZa-41" value="" style="shape=curlyBracket;whiteSpace=wrap;html=1;rounded=1;flipH=1;labelPosition=right;verticalLabelPosition=middle;align=left;verticalAlign=middle;strokeWidth=2;rotation=90;" vertex="1" parent="1">
          <mxGeometry x="122.5" y="377.5" width="45" height="230" as="geometry" />
        </mxCell>
        <mxCell id="7qkod4AInbRbRMI81gZa-42" value="&lt;b&gt;&lt;font style=&quot;font-size: 20px;&quot;&gt;Pre-processing&lt;/font&gt;&lt;/b&gt;" style="text;html=1;align=center;verticalAlign=middle;resizable=0;points=[];autosize=1;strokeColor=none;fillColor=none;" vertex="1" parent="1">
          <mxGeometry x="60" y="510" width="170" height="40" as="geometry" />
        </mxCell>
        <mxCell id="7qkod4AInbRbRMI81gZa-43" value="" style="shape=curlyBracket;whiteSpace=wrap;html=1;rounded=1;flipH=1;labelPosition=right;verticalLabelPosition=middle;align=left;verticalAlign=middle;strokeWidth=2;rotation=90;size=0.5;" vertex="1" parent="1">
          <mxGeometry x="308.75" y="463.12" width="42.5" height="61.25" as="geometry" />
        </mxCell>
        <mxCell id="7qkod4AInbRbRMI81gZa-44" value="&lt;b&gt;&lt;font style=&quot;font-size: 20px;&quot;&gt;Feature Extraction&lt;/font&gt;&lt;/b&gt;" style="text;html=1;align=center;verticalAlign=middle;resizable=0;points=[];autosize=1;strokeColor=none;fillColor=none;" vertex="1" parent="1">
          <mxGeometry x="245" y="510" width="200" height="40" as="geometry" />
        </mxCell>
        <mxCell id="7qkod4AInbRbRMI81gZa-45" value="" style="shape=curlyBracket;whiteSpace=wrap;html=1;rounded=1;flipH=1;labelPosition=right;verticalLabelPosition=middle;align=left;verticalAlign=middle;strokeWidth=2;rotation=90;" vertex="1" parent="1">
          <mxGeometry x="502.03999999999996" y="352.35" width="40.31" height="275.62" as="geometry" />
        </mxCell>
        <mxCell id="7qkod4AInbRbRMI81gZa-46" value="&lt;b&gt;&lt;font style=&quot;font-size: 20px;&quot;&gt;Classification&lt;/font&gt;&lt;/b&gt;" style="text;html=1;align=center;verticalAlign=middle;resizable=0;points=[];autosize=1;strokeColor=none;fillColor=none;" vertex="1" parent="1">
          <mxGeometry x="445" y="510" width="150" height="40" as="geometry" />
        </mxCell>
        <mxCell id="7qkod4AInbRbRMI81gZa-50" style="edgeStyle=orthogonalEdgeStyle;rounded=0;orthogonalLoop=1;jettySize=auto;html=1;entryX=0.5;entryY=0;entryDx=0;entryDy=0;" edge="1" parent="1" source="7qkod4AInbRbRMI81gZa-48" target="7qkod4AInbRbRMI81gZa-32">
          <mxGeometry relative="1" as="geometry" />
        </mxCell>
        <mxCell id="7qkod4AInbRbRMI81gZa-48" value="&lt;span style=&quot;font-size: 21px;&quot;&gt;&lt;b&gt;Pre-trained model&lt;/b&gt;&lt;/span&gt;" style="rounded=1;whiteSpace=wrap;html=1;rotation=-90;strokeWidth=2;" vertex="1" parent="1">
          <mxGeometry x="230" y="310" width="200" height="60" as="geometry" />
        </mxCell>
      </root>
    </mxGraphModel>
  </diagram>
</mxfile>
